<?xml version="1.0" standalone="no"?>
<!DOCTYPE svg PUBLIC "-//W3C//DTD SVG 20010904//EN"
 "http://www.w3.org/TR/2001/REC-SVG-20010904/DTD/svg10.dtd">
<svg version="1.0" xmlns="http://www.w3.org/2000/svg"
 width="920.000000pt" height="578.000000pt" viewBox="0 0 920.000000 578.000000"
 preserveAspectRatio="xMidYMid meet">

<g transform="translate(0.000000,578.000000) scale(0.100000,-0.100000)"
fill="#000000" stroke="none">
<path d="M4545 5769 c-106 -16 -199 -68 -390 -222 -85 -68 -198 -132 -285
-161 -85 -28 -241 -50 -298 -42 -20 3 -113 8 -207 12 -145 6 -179 4 -230 -10
-153 -45 -291 -153 -357 -281 -20 -39 -57 -142 -83 -230 -96 -335 -189 -456
-492 -641 -217 -132 -307 -244 -349 -432 -25 -110 -14 -197 42 -357 90 -255
96 -280 101 -415 6 -157 -12 -242 -96 -443 -74 -181 -85 -223 -85 -327 1 -149
52 -282 147 -386 27 -30 108 -94 181 -143 309 -209 387 -318 472 -660 67 -270
127 -369 284 -470 119 -77 158 -84 460 -86 242 -1 271 -3 338 -23 138 -42 244
-105 402 -242 188 -163 277 -202 455 -202 181 0 250 31 471 206 129 103 268
177 381 202 90 20 203 23 423 10 113 -6 171 -5 215 3 92 19 196 75 275 148 88
82 134 170 191 373 65 229 132 354 251 466 50 47 95 79 305 214 198 126 293
289 293 500 -1 106 -8 137 -71 308 -70 187 -93 300 -85 422 7 121 22 178 101
375 35 88 69 188 76 223 16 86 6 211 -24 293 -54 151 -115 218 -318 354 -85
56 -163 119 -214 170 -128 129 -173 220 -237 480 -54 217 -96 302 -193 393
-85 79 -173 126 -277 148 -58 13 -110 14 -253 9 -206 -7 -289 2 -412 44 -113
39 -172 76 -337 214 -169 141 -262 192 -376 207 -87 11 -113 11 -195 -1z
m-167 -273 c75 -16 132 -41 258 -117 258 -155 406 -178 714 -113 89 19 186 34
215 34 135 0 275 -59 371 -154 62 -62 62 -62 202 -356 57 -119 121 -203 207
-273 57 -46 96 -67 345 -185 138 -65 212 -136 269 -254 44 -93 59 -158 55
-244 -3 -69 -4 -73 -39 -229 -22 -92 -28 -146 -28 -230 0 -174 31 -267 167
-497 79 -136 100 -201 100 -323 0 -165 -51 -275 -181 -397 -188 -176 -228
-218 -270 -282 -82 -123 -117 -245 -138 -482 -3 -39 -8 -82 -10 -94 -11 -56
-48 -152 -76 -193 -40 -61 -139 -152 -198 -181 -83 -43 -143 -56 -326 -72
-100 -8 -211 -32 -278 -59 -128 -51 -208 -115 -366 -292 -150 -167 -268 -227
-446 -227 -105 0 -180 22 -290 86 -163 95 -193 111 -248 133 -156 64 -313 70
-527 20 -141 -33 -236 -41 -315 -26 -91 16 -213 81 -280 148 -56 57 -81 101
-196 353 -39 85 -111 186 -177 246 -62 57 -157 113 -298 174 -64 28 -141 67
-170 86 -107 71 -187 186 -221 317 -21 82 -12 203 26 365 46 200 38 370 -25
516 -10 23 -51 99 -92 170 -94 162 -114 217 -120 330 -5 104 8 176 50 264 31
65 71 110 279 307 173 164 229 293 254 595 14 159 43 247 110 339 107 145 236
206 480 225 158 13 236 31 355 84 73 32 159 102 255 207 139 151 183 192 257
230 107 57 231 75 346 51z"/>
</g>
</svg>
