<?xml version="1.0" standalone="no"?>
<!DOCTYPE svg PUBLIC "-//W3C//DTD SVG 20010904//EN"
 "http://www.w3.org/TR/2001/REC-SVG-20010904/DTD/svg10.dtd">
<svg version="1.0" xmlns="http://www.w3.org/2000/svg"
 width="618.000000pt" height="1280.000000pt" viewBox="0 0 618.000000 1280.000000"
 preserveAspectRatio="xMidYMid meet">

<g transform="translate(0.000000,1280.000000) scale(0.100000,-0.100000)"
fill="#000000" stroke="none">
<path d="M3047 12080 c-41 -36 -52 -78 -32 -125 16 -39 67 -75 106 -75 39 0
91 40 108 83 12 33 12 41 -3 75 -34 76 -119 95 -179 42z"/>
<path d="M2285 11575 c-52 -51 -15 -137 59 -137 53 0 81 29 81 83 0 31 -6 46
-24 60 -33 27 -86 25 -116 -6z"/>
<path d="M2656 11554 c-21 -21 -20 -57 2 -77 17 -15 64 -17 470 -17 439 0 453
1 472 20 24 24 25 38 4 68 l-15 22 -459 0 c-404 0 -460 -2 -474 -16z"/>
<path d="M123 11010 c0 -30 2 -43 4 -27 2 15 2 39 0 55 -2 15 -4 2 -4 -28z"/>
<path d="M533 10893 c-10 -21 -13 -952 -13 -4547 0 -2832 4 -4527 10 -4536 8
-13 303 -15 2559 -15 2413 0 2550 1 2568 18 11 9 32 17 46 17 l27 0 0 208 c0
148 -3 211 -12 220 -9 9 -599 12 -2595 12 l-2583 0 2 3978 3 3977 2590 5 2590
5 0 340 0 340 -2590 2 -2590 3 -12 -27z m4765 -65 l3 -48 -320 0 -321 0 0 43
c0 24 3 47 7 50 4 4 146 6 317 5 l311 -3 3 -47z m-4102 -153 c4 -8 3 -23 -1
-32 -6 -16 -8 -16 -22 5 -13 18 -25 22 -73 22 l-57 0 -7 -39 c-10 -65 -2 -74
65 -69 57 4 59 4 59 -20 0 -24 -1 -24 -18 -9 -11 10 -35 17 -60 17 -32 0 -42
-4 -47 -21 -9 -27 3 -92 18 -101 7 -4 -10 -8 -37 -8 -43 0 -47 2 -35 16 18 22
19 226 1 232 -33 11 -1 17 98 20 91 2 111 0 116 -13z m145 -6 c-52 -20 -31
-65 48 -100 54 -24 91 -56 91 -79 0 -33 -25 -70 -47 -70 -13 0 -23 5 -23 10 0
6 4 10 9 10 16 0 23 40 10 56 -7 9 -40 28 -73 43 -72 33 -89 50 -84 88 2 21
12 32 38 44 19 10 39 14 44 11 5 -3 0 -9 -13 -13z m103 15 c9 -3 16 -17 16
-30 0 -29 -11 -31 -28 -4 -7 11 -19 20 -27 20 -8 0 -15 5 -15 10 0 11 30 13
54 4z m3854 -61 l-3 -48 -315 0 -315 0 -3 48 -3 47 321 0 321 0 -3 -47z
m-3983 -185 c19 -17 19 -18 -25 -17 -25 0 -40 3 -34 5 6 2 9 19 6 37 -4 32 -4
32 14 12 11 -11 28 -28 39 -37z m3983 -20 l3 -48 -320 0 -321 0 0 50 0 50 318
-2 317 -3 3 -47z m-2688 -8374 c0 -43 -4 -74 -10 -74 -6 0 -10 34 -10 81 0 51
4 78 10 74 6 -3 10 -40 10 -81z m894 1 c1 -46 -3 -74 -9 -72 -5 2 -9 18 -7 35
2 16 -2 33 -8 37 -8 5 -8 11 1 21 6 7 8 21 5 30 -6 16 2 39 11 30 3 -3 6 -39
7 -81z m-1634 45 c0 -5 -2 -10 -4 -10 -3 0 -8 5 -11 10 -3 6 -1 10 4 10 6 0
11 -4 11 -10z m1320 -55 c0 -37 -4 -65 -10 -65 -6 0 -10 28 -10 65 0 37 4 65
10 65 6 0 10 -28 10 -65z m1050 55 c0 -5 -4 -10 -10 -10 -5 0 -10 5 -10 10 0
6 5 10 10 10 6 0 10 -4 10 -10z m-30 -53 c25 -12 41 -57 21 -57 -6 0 -11 7
-11 15 0 8 -15 22 -32 31 -38 19 -48 32 -41 50 4 10 9 8 22 -7 9 -11 27 -25
41 -32z m-2452 7 c0 -20 5 -41 11 -47 23 -23 10 -29 -14 -7 -27 25 -32 59 -13
78 16 16 16 17 16 -24z m1000 -8 c0 -24 3 -49 6 -55 4 -6 1 -11 -7 -11 -15 0
-29 71 -19 98 10 27 21 9 20 -32z m-694 -57 c-1 -45 -5 -74 -13 -77 -12 -4
-17 139 -5 151 15 14 19 -5 18 -74z m64 69 c15 -15 16 -55 1 -64 -7 -4 -9 0
-5 14 4 12 1 26 -9 35 -8 9 -15 18 -15 21 0 10 15 7 28 -6z m232 2 c0 -5 -5
-10 -11 -10 -5 0 -7 5 -4 10 3 6 8 10 11 10 2 0 4 -4 4 -10z m60 -41 c0 -21
-4 -39 -9 -39 -9 0 -20 77 -12 85 11 12 21 -10 21 -46z m260 -1 c0 -51 -5 -47
-14 10 -4 29 -3 41 4 37 5 -3 10 -25 10 -47z m204 0 c7 -5 5 -8 -7 -8 -21 0
-32 24 -21 48 6 14 8 13 12 -8 2 -14 9 -28 16 -32z m906 25 c0 -13 -3 -13 -15
-3 -8 7 -12 16 -9 21 8 13 24 1 24 -18z m631 4 c-6 -6 -12 -25 -12 -41 -2 -27
-3 -26 -8 9 -8 48 -5 56 15 48 11 -4 12 -9 5 -16z m139 -33 c0 -19 -4 -34 -10
-34 -5 0 -10 16 -10 35 0 19 -5 35 -11 35 -5 0 -7 5 -4 10 12 20 35 -11 35
-46z m62 13 c-2 -24 1 -37 8 -37 10 0 10 -3 0 -14 -6 -8 -10 -25 -8 -37 2 -12
-3 -24 -9 -26 -10 -4 -13 16 -13 77 0 61 3 81 12 78 8 -3 12 -19 10 -41z
m-2614 4 c2 -13 -1 -28 -7 -34 -8 -8 -11 -4 -11 14 0 14 -6 31 -12 38 -11 10
-9 12 7 9 12 -2 21 -13 23 -27z m182 17 c0 -6 7 -19 16 -29 11 -12 13 -25 8
-41 -6 -21 -8 -20 -20 16 -8 21 -19 45 -25 52 -9 11 -8 14 5 14 9 0 16 -5 16
-12z m132 -28 c-2 -22 -7 -40 -11 -40 -3 0 -6 18 -6 40 0 22 4 40 10 40 6 0 9
-16 7 -40z m228 20 c0 -11 -4 -20 -9 -20 -5 0 -11 9 -14 20 -3 13 0 20 9 20 8
0 14 -9 14 -20z m815 10 c3 -5 1 -10 -4 -10 -6 0 -11 5 -11 10 0 6 2 10 4 10
3 0 8 -4 11 -10z m255 0 c0 -5 -4 -10 -10 -10 -5 0 -10 5 -10 10 0 6 5 10 10
10 6 0 10 -4 10 -10z m69 -12 c-17 -34 -19 -34 -19 -5 0 18 5 27 15 27 13 0
14 -4 4 -22z m341 7 c7 -9 9 -22 5 -32 -7 -17 -8 -16 -13 2 -2 11 -9 26 -14
33 -7 8 -7 12 0 12 5 0 15 -7 22 -15z m320 -25 c0 -22 -5 -40 -10 -40 -6 0
-10 17 -8 40 1 22 6 40 10 40 4 0 8 -18 8 -40z m140 0 c0 -22 -4 -40 -9 -40
-5 0 -11 18 -13 40 -2 28 0 40 9 40 8 0 13 -14 13 -40z m214 18 c5 -9 6 -21 2
-25 -5 -4 -11 -2 -13 5 -3 7 -12 20 -21 28 -14 15 -14 16 3 13 10 -2 23 -12
29 -21z m126 7 c7 -9 9 -22 5 -32 -7 -17 -8 -16 -13 2 -2 11 -9 26 -14 33 -7
8 -7 12 0 12 5 0 15 -7 22 -15z m-2348 -19 c4 -17 1 -23 -9 -19 -14 6 -18 43
-4 43 5 0 11 -11 13 -24z m828 -8 c0 -11 8 -22 20 -25 11 -3 17 -9 14 -14 -6
-10 -45 7 -55 24 -9 13 1 48 12 41 5 -3 9 -14 9 -26z m275 -28 c8 0 15 -4 15
-10 0 -13 -6 -13 -29 0 -23 12 -32 35 -24 57 5 14 9 10 15 -15 5 -18 15 -32
23 -32z m278 5 c26 -18 20 -26 -10 -14 -18 6 -23 16 -22 41 1 24 3 27 6 11 2
-13 14 -30 26 -38z m88 11 c14 -15 11 -26 -6 -20 -18 7 -29 40 -18 56 5 9 9 7
11 -7 2 -11 8 -24 13 -29z m799 21 c0 -13 5 -28 11 -34 9 -9 7 -10 -10 -6 -15
4 -21 13 -21 34 0 16 5 29 10 29 6 0 10 -10 10 -23z m-2820 -35 c0 -12 -3 -12
-15 -2 -8 7 -15 22 -15 34 1 21 1 21 15 2 8 -11 15 -26 15 -34z m1509 -10
c-16 -6 -39 19 -39 42 0 19 2 18 24 -9 14 -16 20 -32 15 -33z m346 19 c3 -5 1
-12 -5 -16 -5 -3 -10 1 -10 9 0 18 6 21 15 7z m515 -6 c0 -8 -4 -15 -10 -15
-5 0 -10 7 -10 15 0 8 5 15 10 15 6 0 10 -7 10 -15z m-135 -13 c-3 -3 -11 0
-18 7 -9 10 -8 11 6 5 10 -3 15 -9 12 -12z m-1607 -25 c6 -5 12 -14 12 -20 0
-5 -8 -3 -18 6 -10 10 -30 17 -45 17 -14 0 -28 4 -32 9 -7 12 65 2 83 -12z
m-78 -39 c0 -5 -4 -8 -10 -8 -5 0 -10 10 -10 23 0 18 2 19 10 7 5 -8 10 -18
10 -22z"/>
<path d="M122 10075 c0 -16 2 -22 5 -12 2 9 2 23 0 30 -3 6 -5 -1 -5 -18z"/>
<path d="M3733 9883 c-10 -3 -10 -10 -2 -25 7 -12 8 -47 4 -93 -7 -67 -6 -74
13 -84 11 -6 29 -11 39 -10 15 0 14 2 -4 9 -21 8 -22 15 -22 101 0 92 -5 111
-28 102z"/>
<path d="M4557 9884 c-3 -3 -3 -21 0 -40 5 -30 3 -36 -16 -41 l-22 -6 21 -14
c17 -12 21 -24 18 -56 -2 -34 1 -42 16 -45 14 -3 17 0 12 13 -3 9 -6 57 -6
106 0 81 -5 100 -23 83z"/>
<path d="M2240 9850 c0 -5 5 -10 11 -10 5 0 7 5 4 10 -3 6 -8 10 -11 10 -2 0
-4 -4 -4 -10z"/>
<path d="M1455 9830 c10 -11 20 -20 22 -20 1 0 3 9 3 20 0 14 -7 20 -22 20
-20 0 -21 -1 -3 -20z"/>
<path d="M1321 9821 c-30 -30 -28 -85 4 -116 39 -40 62 -32 25 7 -22 24 -27
87 -8 106 6 6 9 14 6 18 -4 3 -16 -4 -27 -15z"/>
<path d="M3039 9813 c-3 -61 4 -120 16 -132 20 -20 32 -5 17 19 -14 23 -15 59
-3 79 6 9 5 21 -2 33 -15 23 -27 23 -28 1z"/>
<path d="M3915 9813 c-5 -10 -7 -27 -5 -38 1 -11 4 -31 5 -45 4 -44 5 -48 18
-53 10 -4 12 10 10 62 -1 36 -3 72 -3 79 0 18 -17 15 -25 -5z"/>
<path d="M1719 9796 c0 -3 -1 -29 -1 -58 -1 -66 21 -79 24 -14 0 25 1 51 2 58
1 11 -23 25 -25 14z"/>
<path d="M1800 9786 c0 -8 5 -18 11 -22 7 -4 9 -22 6 -45 -4 -29 -2 -39 9 -39
18 0 20 90 2 108 -16 16 -28 15 -28 -2z"/>
<path d="M1990 9778 c12 -13 20 -36 20 -57 1 -34 2 -35 15 -17 22 29 18 52
-11 75 -35 28 -50 27 -24 -1z"/>
<path d="M2140 9796 c0 -2 7 -7 16 -10 8 -3 12 -2 9 4 -6 10 -25 14 -25 6z"/>
<path d="M2229 9796 c-8 -8 3 -116 12 -116 5 0 9 27 9 60 0 53 -7 70 -21 56z"/>
<path d="M2324 9740 c0 -41 4 -60 12 -60 15 0 23 97 10 111 -18 17 -22 9 -22
-51z"/>
<path d="M2400 9791 c0 -6 5 -13 10 -16 6 -3 10 -26 10 -51 0 -24 5 -44 10
-44 6 0 10 24 10 54 0 40 -4 55 -16 60 -21 8 -24 8 -24 -3z"/>
<path d="M2490 9791 c0 -6 5 -13 11 -17 7 -4 9 -24 6 -50 -3 -33 -1 -44 9 -44
21 0 19 106 -2 114 -21 8 -24 8 -24 -3z"/>
<path d="M2597 9794 c-3 -3 -2 -16 3 -29 5 -12 6 -37 4 -54 -4 -24 -1 -31 10
-31 13 0 16 12 16 60 0 43 -4 60 -13 60 -8 0 -16 -3 -20 -6z"/>
<path d="M2757 9780 c10 -11 24 -20 33 -20 11 1 8 6 -9 20 -30 26 -46 26 -24
0z"/>
<path d="M2850 9739 c0 -44 3 -59 13 -56 6 2 11 13 10 23 -1 10 2 31 6 45 6
18 5 31 -2 38 -21 21 -27 11 -27 -50z"/>
<path d="M2930 9791 c0 -6 5 -13 10 -16 6 -3 10 -26 10 -51 0 -32 4 -44 15
-44 12 0 13 10 9 48 -3 26 -7 53 -10 60 -4 14 -34 17 -34 3z"/>
<path d="M3230 9780 c13 -13 20 -33 20 -56 0 -31 2 -35 15 -24 22 18 18 56 -7
80 -29 27 -55 27 -28 0z"/>
<path d="M3637 9785 c15 -11 23 -28 25 -58 3 -40 3 -41 16 -19 18 32 8 66 -23
80 -36 16 -44 15 -18 -3z"/>
<path d="M3810 9791 c0 -5 7 -14 16 -22 10 -8 14 -24 12 -46 -5 -38 -5 -38 16
-17 22 22 20 50 -6 74 -23 21 -38 26 -38 11z"/>
<path d="M4090 9781 c6 -12 18 -21 26 -21 19 0 10 16 -17 31 -19 10 -20 9 -9
-10z"/>
<path d="M4260 9791 c0 -6 5 -13 10 -16 6 -3 10 -26 10 -51 0 -24 5 -44 10
-44 6 0 10 24 10 54 0 40 -4 55 -16 60 -21 8 -24 8 -24 -3z"/>
<path d="M4370 9740 c0 -45 3 -61 13 -57 7 2 12 23 12 57 0 34 -5 55 -12 58
-10 3 -13 -13 -13 -58z"/>
<path d="M4730 9778 c12 -13 20 -36 20 -57 1 -34 2 -35 15 -17 21 28 19 52 -7
76 -30 28 -55 27 -28 -2z"/>
<path d="M1532 9778 c-21 -21 -14 -65 14 -87 15 -12 34 -20 43 -20 14 1 14 2
0 6 -24 6 -48 55 -42 86 6 30 3 33 -15 15z"/>
<path d="M1630 9771 c5 -11 10 -34 10 -52 0 -27 2 -30 15 -19 18 15 19 49 1
73 -19 24 -40 23 -26 -2z"/>
<path d="M3322 9768 c2 -12 14 -28 28 -35 13 -7 30 -20 37 -29 6 -9 16 -13 22
-9 17 10 -4 41 -39 55 -16 7 -30 19 -30 26 0 8 -5 14 -11 14 -6 0 -9 -10 -7
-22z"/>
<path d="M4180 9735 c0 -42 3 -55 15 -55 12 0 15 13 15 55 0 42 -3 55 -15 55
-12 0 -15 -13 -15 -55z"/>
<path d="M4822 9777 c-9 -11 -8 -17 6 -29 9 -8 25 -18 35 -22 11 -3 21 -15 24
-26 3 -11 9 -17 14 -14 18 11 8 35 -23 54 -18 11 -35 27 -38 36 -5 14 -8 14
-18 1z"/>
<path d="M1897 9773 c-11 -11 -8 -58 6 -76 6 -9 26 -19 42 -22 24 -4 26 -4 9
4 -24 11 -49 64 -40 86 5 15 -5 21 -17 8z"/>
<path d="M2070 9761 c-5 -11 -10 -25 -10 -31 0 -20 48 -60 72 -60 22 1 22 1
-5 18 -29 18 -43 51 -33 77 8 22 -12 18 -24 -4z"/>
<path d="M2685 9768 c-20 -51 26 -112 71 -93 17 7 16 8 -10 16 -33 9 -48 27
-41 49 2 8 0 22 -5 30 -8 12 -10 12 -15 -2z"/>
<path d="M3143 9773 c-7 -3 -13 -17 -13 -33 0 -33 41 -71 74 -69 l21 2 -21 4
c-23 4 -42 34 -46 74 -2 15 -8 24 -15 22z"/>
<path d="M3544 9756 c-8 -35 3 -61 32 -74 39 -19 49 -14 20 9 -19 15 -26 30
-26 55 0 39 -17 46 -26 10z"/>
<path d="M4011 9759 c-4 -13 -6 -31 -3 -41 6 -24 40 -48 67 -48 20 1 20 1 0
15 -40 29 -45 36 -39 59 8 31 -14 44 -25 15z"/>
<path d="M4463 9773 c-16 -6 -17 -65 -1 -81 7 -7 21 -12 32 -12 19 0 18 1 -4
24 -15 17 -21 33 -18 50 3 15 5 26 4 25 0 0 -7 -3 -13 -6z"/>
<path d="M4634 9756 c-3 -14 -3 -33 0 -44 7 -21 62 -49 73 -38 3 3 0 6 -7 6
-20 0 -39 32 -40 68 0 38 -17 43 -26 8z"/>
<path d="M1461 9697 c-7 -9 -27 -18 -44 -20 -18 -2 -13 -3 11 -2 47 3 56 8 50
25 -2 8 -8 7 -17 -3z"/>
<path d="M3330 9679 c0 -5 9 -9 20 -9 11 0 20 2 20 4 0 2 -9 6 -20 9 -11 3
-20 1 -20 -4z"/>
<path d="M4848 9673 c7 -3 16 -2 19 1 4 3 -2 6 -13 5 -11 0 -14 -3 -6 -6z"/>
<path d="M4607 9233 c-4 -3 -7 -32 -7 -64 0 -67 9 -73 91 -67 36 2 44 6 44 23
0 16 -8 21 -37 23 -29 2 -38 8 -38 22 0 14 9 20 38 22 30 2 38 7 40 26 3 21 0
22 -61 22 -35 0 -67 -3 -70 -7z"/>
<path d="M4771 9170 l1 -70 64 0 64 0 0 70 0 70 -65 0 -65 0 1 -70z"/>
<path d="M4934 9227 c-3 -8 -3 -38 -1 -68 l3 -54 64 0 65 0 3 68 3 67 -66 0
c-45 0 -67 -4 -71 -13z"/>
<path d="M2996 9186 c10 -8 21 -12 24 -10 5 6 -21 24 -34 24 -6 0 -1 -6 10
-14z"/>
<path d="M3068 9193 c7 -3 16 -2 19 1 4 3 -2 6 -13 5 -11 0 -14 -3 -6 -6z"/>
<path d="M3300 9180 c0 -5 4 -10 9 -10 6 0 13 5 16 10 3 6 -1 10 -9 10 -9 0
-16 -4 -16 -10z"/>
<path d="M2936 9168 c3 -4 17 -8 31 -8 15 0 23 3 19 8 -10 10 -56 10 -50 0z"/>
<path d="M1167 9163 c-4 -3 -7 -30 -7 -60 0 -49 2 -53 24 -53 15 0 26 7 29 20
7 26 37 26 44 -1 4 -14 12 -19 27 -17 18 3 22 11 24 52 2 32 -1 52 -10 57 -21
14 -35 10 -41 -11 -3 -11 -12 -20 -21 -20 -8 0 -20 9 -26 20 -11 20 -31 26
-43 13z"/>
<path d="M1337 9164 c-13 -14 -7 -32 13 -37 15 -4 20 -14 20 -41 0 -32 3 -36
25 -36 22 0 25 4 25 36 0 28 5 37 20 41 13 3 20 12 18 22 -2 12 -17 17 -58 19
-31 2 -59 0 -63 -4z"/>
<path d="M1492 9161 c-9 -5 -12 -25 -10 -57 3 -42 6 -49 26 -52 15 -2 25 3 30
19 5 13 11 18 15 12 4 -6 16 -9 27 -6 14 4 20 0 20 -11 0 -10 9 -16 25 -16 25
0 26 2 23 57 -2 47 -7 58 -21 61 -10 2 -27 -4 -37 -13 -17 -16 -21 -16 -42 -1
-25 18 -37 19 -56 7z"/>
<path d="M1682 9161 c-9 -5 -12 -25 -10 -57 l3 -49 60 0 c47 0 60 3 60 15 0
10 -12 16 -32 18 -22 2 -33 9 -34 20 -1 9 -2 22 -4 27 -1 6 -3 16 -3 23 -2 14
-21 16 -40 3z"/>
<path d="M3365 9160 c-3 -5 -1 -10 4 -10 6 0 11 5 11 10 0 6 -2 10 -4 10 -3 0
-8 -4 -11 -10z"/>
<path d="M2849 9137 c6 -8 8 -17 4 -21 -4 -4 1 -4 12 0 11 5 14 9 7 12 -7 2
-10 8 -6 13 3 5 -2 9 -12 9 -13 0 -14 -3 -5 -13z"/>
<path d="M3378 9133 c7 -3 16 -2 19 1 4 3 -2 6 -13 5 -11 0 -14 -3 -6 -6z"/>
<path d="M2801 9119 c-13 -5 -21 -12 -18 -15 3 -3 18 1 34 10 31 17 21 20 -16
5z"/>
<path d="M3413 9095 c0 -22 2 -30 4 -17 2 12 2 30 0 40 -3 9 -5 -1 -4 -23z"/>
<path d="M3430 9094 c0 -8 5 -12 10 -9 6 4 8 11 5 16 -9 14 -15 11 -15 -7z"/>
<path d="M2732 9081 c-11 -7 -11 -9 2 -14 9 -4 16 -2 16 3 0 5 8 11 18 13 14
4 14 5 -3 6 -11 0 -26 -3 -33 -8z"/>
<path d="M2659 9049 c16 -6 28 -6 35 1 7 7 -1 10 -24 9 -33 0 -34 -1 -11 -10z"/>
<path d="M2633 9025 c0 -8 4 -12 9 -9 5 3 6 10 3 15 -9 13 -12 11 -12 -6z"/>
<path d="M4400 9018 c0 -7 4 -40 10 -73 5 -33 14 -112 20 -175 11 -109 16
-151 39 -369 5 -52 15 -97 21 -101 6 -4 87 -24 180 -45 l169 -38 148 33 c81
18 160 35 175 37 15 3 32 10 37 17 6 6 17 81 26 166 9 85 20 198 26 250 20
194 28 275 29 293 0 16 -28 17 -440 17 -345 0 -440 -3 -440 -12z m718 -127
c15 -1 15 -8 -8 -216 -6 -60 -15 -141 -18 -180 -8 -82 -10 -83 -149 -113 l-92
-20 -112 25 c-62 13 -119 29 -126 35 -8 7 -13 35 -13 79 l0 69 49 0 c52 0 67
-10 73 -50 4 -35 87 -56 161 -40 71 15 78 21 84 74 l6 46 -185 0 c-208 0 -212
1 -206 67 l3 38 200 5 200 5 3 33 3 32 -58 1 c-32 1 -128 4 -213 8 l-155 6 -3
47 -3 48 173 2 c141 2 310 2 386 -1z"/>
<path d="M2600 9010 c0 -5 5 -10 10 -10 6 0 10 5 10 10 0 6 -4 10 -10 10 -5 0
-10 -4 -10 -10z"/>
<path d="M3400 9009 c0 -5 5 -7 10 -4 6 3 10 8 10 11 0 2 -4 4 -10 4 -5 0 -10
-5 -10 -11z"/>
<path d="M3390 8975 c0 -8 2 -15 4 -15 2 0 6 7 10 15 3 8 1 15 -4 15 -6 0 -10
-7 -10 -15z"/>
<path d="M1109 8976 c-4 -5 3 -88 20 -243 6 -51 15 -132 20 -180 5 -49 12
-111 16 -140 l8 -52 46 -10 c25 -6 87 -20 136 -32 99 -22 150 -25 198 -11 18
6 68 18 112 27 131 27 120 14 134 166 6 74 14 150 17 169 3 19 9 71 14 115 5
44 12 106 16 138 l7 57 -370 0 c-203 0 -372 -2 -374 -4z m418 -62 c-3 -3 -12
-4 -19 -1 -8 3 -5 6 6 6 11 1 17 -2 13 -5z m146 -1 c-7 -2 -19 -2 -25 0 -7 3
-2 5 12 5 14 0 19 -2 13 -5z m40 -25 c26 -8 34 -14 25 -20 -9 -5 -7 -8 7 -8
17 0 17 -2 5 -10 -13 -9 -13 -10 0 -10 12 0 12 -2 2 -9 -8 -4 -13 -11 -13 -15
6 -47 -32 -71 -98 -60 -28 4 -41 3 -41 -5 0 -6 -5 -11 -11 -11 -5 0 -7 5 -4
10 3 6 -3 10 -15 10 -12 0 -18 -4 -15 -10 7 -11 -8 -14 -19 -3 -15 15 -84 33
-128 33 -47 0 -48 -1 -48 -30 0 -34 23 -44 80 -35 19 4 64 9 100 12 36 3 68
11 72 17 6 8 8 7 8 -1 0 -20 89 -17 112 4 10 9 18 11 18 5 0 -6 -10 -16 -21
-23 -16 -8 -18 -13 -9 -19 7 -4 10 -12 6 -18 -3 -6 -2 -21 3 -35 7 -17 4 -50
-9 -111 -20 -89 -35 -116 -67 -116 -15 0 -16 -2 -3 -11 11 -8 3 -9 -31 -5 -50
6 -92 -2 -83 -15 3 -5 0 -9 -5 -9 -6 0 -11 6 -11 13 0 8 -3 8 -9 -2 -7 -11
-13 -12 -23 -3 -8 6 -56 20 -108 31 -52 12 -97 24 -100 28 -4 5 -12 32 -20 62
-12 50 -11 55 6 68 34 25 104 14 104 -17 0 -41 77 -65 130 -39 19 9 40 15 46
12 6 -2 11 8 11 27 0 20 -5 30 -16 31 -9 1 -77 4 -151 8 l-135 6 -7 45 c-13
74 -24 201 -19 205 2 3 55 5 117 5 66 0 124 5 142 13 41 16 178 20 225 5z m34
-215 c-3 -10 -5 -2 -5 17 0 19 2 27 5 18 2 -10 2 -26 0 -35z m-217 -99 c0 -6
-8 -14 -19 -17 -14 -3 -17 0 -14 13 5 19 33 23 33 4z"/>
<path d="M2523 8957 c-4 -6 0 -8 10 -4 11 4 17 1 17 -8 0 -20 13 -19 26 3 10
15 7 17 -18 18 -15 1 -31 -3 -35 -9z"/>
<path d="M2512 8920 c-7 -11 -8 -20 -3 -20 9 0 24 30 18 36 -1 2 -8 -6 -15
-16z"/>
<path d="M3330 8899 c0 -5 5 -7 10 -4 6 3 10 8 10 11 0 2 -4 4 -10 4 -5 0 -10
-5 -10 -11z"/>
<path d="M2456 8883 c-9 -9 -7 -41 3 -47 4 -3 6 7 3 22 -5 24 -4 26 11 13 10
-7 17 -9 17 -3 0 12 -26 23 -34 15z"/>
<path d="M2501 8864 c0 -11 3 -14 6 -6 3 7 2 16 -1 19 -3 4 -6 -2 -5 -13z"/>
<path d="M3245 8865 c-25 -12 -26 -14 -5 -9 14 4 29 10 35 15 12 12 5 11 -30
-6z"/>
<path d="M2443 8808 c1 -31 12 -37 21 -12 3 8 2 12 -3 9 -5 -3 -12 3 -14 12
-3 10 -4 6 -4 -9z"/>
<path d="M3395 8727 c-15 -17 -7 -47 12 -47 12 0 13 3 4 14 -6 7 -9 21 -5 30
7 19 3 20 -11 3z"/>
<path d="M3592 8728 c-7 -7 -12 -17 -12 -22 0 -6 5 -3 11 7 6 9 14 15 20 12 5
-4 9 -1 9 4 0 14 -13 14 -28 -1z"/>
<path d="M2520 8713 c8 -3 18 -11 22 -17 5 -7 8 -4 8 7 0 11 -7 17 -22 16 -16
0 -18 -2 -8 -6z"/>
<path d="M3390 8661 c0 -6 5 -11 11 -11 5 0 8 -4 4 -9 -3 -5 -1 -12 5 -16 16
-10 12 21 -5 35 -10 9 -15 9 -15 1z"/>
<path d="M2970 8609 c0 -5 5 -7 10 -4 6 3 10 8 10 11 0 2 -4 4 -10 4 -5 0 -10
-5 -10 -11z"/>
<path d="M3148 8593 c7 -3 16 -2 19 1 4 3 -2 6 -13 5 -11 0 -14 -3 -6 -6z"/>
<path d="M3690 8589 c0 -5 5 -7 10 -4 6 3 10 8 10 11 0 2 -4 4 -10 4 -5 0 -10
-5 -10 -11z"/>
<path d="M3433 8573 c9 -11 17 -28 17 -39 0 -10 7 -28 15 -38 8 -11 15 -15 15
-9 0 7 -4 15 -10 18 -5 3 -10 18 -10 33 0 17 -8 32 -22 41 -22 13 -23 13 -5
-6z"/>
<path d="M3120 8550 c0 -8 5 -22 10 -30 9 -13 10 -13 10 0 0 8 -5 22 -10 30
-9 13 -10 13 -10 0z"/>
<path d="M2785 8530 c-3 -5 -2 -10 4 -10 5 0 13 5 16 10 3 6 2 10 -4 10 -5 0
-13 -4 -16 -10z"/>
<path d="M2948 8503 c7 -3 16 -2 19 1 4 3 -2 6 -13 5 -11 0 -14 -3 -6 -6z"/>
<path d="M3130 8490 c0 -5 5 -10 11 -10 5 0 7 5 4 10 -3 6 -8 10 -11 10 -2 0
-4 -4 -4 -10z"/>
<path d="M2939 8481 c11 -7 11 -9 0 -13 -8 -3 -10 -9 -6 -14 4 -5 12 -2 17 6
14 22 12 30 -7 30 -14 0 -15 -2 -4 -9z"/>
<path d="M3130 8431 c0 -6 5 -13 10 -16 6 -3 10 1 10 9 0 9 -4 16 -10 16 -5 0
-10 -4 -10 -9z"/>
<path d="M2944 8419 c-3 -6 -1 -16 5 -22 8 -8 11 -8 11 1 0 7 9 3 21 -9 11
-11 24 -17 27 -13 4 3 1 9 -6 11 -6 3 -9 10 -6 15 4 7 2 8 -4 4 -7 -4 -12 -3
-12 2 0 15 -28 23 -36 11z"/>
<path d="M2535 8390 c-3 -6 1 -7 9 -4 18 7 21 14 7 14 -6 0 -13 -4 -16 -10z"/>
<path d="M2525 8341 c-3 -5 -1 -12 5 -16 5 -3 10 1 10 9 0 18 -6 21 -15 7z"/>
<path d="M2507 8305 c-4 -8 -2 -17 3 -20 6 -4 10 3 10 14 0 25 -6 27 -13 6z"/>
<path d="M2531 8280 c-7 -17 -10 -34 -7 -37 3 -4 6 2 6 13 1 17 2 17 13 3 7
-9 18 -14 25 -12 17 6 15 23 -2 23 -8 0 -16 9 -18 21 -3 17 -5 15 -17 -11z"/>
<path d="M2720 8299 c0 -5 5 -7 10 -4 6 3 10 8 10 11 0 2 -4 4 -10 4 -5 0 -10
-5 -10 -11z"/>
<path d="M1258 7884 c-9 -8 9 -44 22 -44 14 0 12 13 -3 34 -7 9 -16 14 -19 10z"/>
<path d="M1068 7858 c-5 -35 3 -79 13 -72 12 7 12 94 0 94 -5 0 -11 -10 -13
-22z"/>
<path d="M1160 7835 c0 -25 5 -45 10 -45 6 0 10 20 10 45 0 25 -4 45 -10 45
-5 0 -10 -20 -10 -45z"/>
<path d="M1367 7873 c-8 -14 8 -99 16 -85 5 6 6 29 2 49 -6 40 -10 49 -18 36z"/>
<path d="M1433 7835 c0 -27 2 -38 4 -22 2 15 2 37 0 50 -2 12 -4 0 -4 -28z"/>
<path d="M2850 7872 c0 -16 32 -73 37 -68 3 3 -2 21 -11 41 -16 34 -26 44 -26
27z"/>
<path d="M2960 7840 c19 -17 39 -30 45 -30 5 0 -6 14 -25 30 -19 16 -39 29
-45 29 -5 0 6 -13 25 -29z"/>
<path d="M3211 7835 c0 -35 1 -37 10 -17 6 15 5 30 -1 40 -7 13 -9 8 -9 -23z"/>
<path d="M3763 7835 c0 -22 2 -30 4 -17 2 12 2 30 0 40 -3 9 -5 -1 -4 -23z"/>
<path d="M4417 7863 c-11 -10 -8 -51 3 -58 6 -4 10 8 10 29 0 37 -2 41 -13 29z"/>
<path d="M4552 7860 c2 -8 14 -19 26 -25 12 -5 22 -13 22 -17 0 -5 5 -8 10 -8
17 0 11 20 -7 27 -10 3 -27 13 -37 22 -16 14 -18 14 -14 1z"/>
<path d="M4660 7863 c0 -6 16 -20 35 -32 19 -11 35 -16 35 -10 0 5 -8 12 -17
16 -10 3 -26 13 -35 21 -10 8 -18 10 -18 5z"/>
<path d="M2700 7853 c1 -5 17 -18 36 -31 20 -12 34 -17 32 -10 -2 7 -14 17
-26 23 -12 5 -22 13 -22 17 0 5 -4 8 -10 8 -5 0 -10 -3 -10 -7z"/>
<path d="M3075 7835 c32 -26 45 -31 45 -16 0 9 -56 41 -69 41 -3 -1 8 -12 24
-25z"/>
<path d="M3310 7831 c36 -30 53 -33 30 -6 -7 8 -19 15 -26 15 -8 0 -14 5 -14
10 0 6 -6 10 -12 10 -7 0 3 -14 22 -29z"/>
<path d="M3380 7835 c0 -14 5 -25 10 -25 6 0 10 11 10 25 0 14 -4 25 -10 25
-5 0 -10 -11 -10 -25z"/>
<path d="M3530 7852 c1 -4 17 -17 36 -30 20 -12 34 -17 32 -10 -5 14 -68 52
-68 40z"/>
<path d="M3640 7853 c1 -5 16 -18 35 -30 35 -22 46 -22 22 0 -20 19 -57 38
-57 30z"/>
<path d="M1300 7818 c0 -9 5 -20 11 -23 17 -11 20 0 4 21 -13 17 -14 17 -15 2z"/>
<path d="M1610 7803 c0 -5 5 -15 10 -23 8 -12 10 -11 10 8 0 12 -4 22 -10 22
-5 0 -10 -3 -10 -7z"/>
<path d="M3548 7268 c-51 -30 -66 -67 -72 -178 -7 -155 -36 -217 -121 -261
-65 -33 -66 -56 -4 -86 83 -39 118 -113 126 -270 7 -119 23 -155 81 -181 33
-15 89 -17 542 -17 460 0 508 2 537 17 55 30 73 63 73 131 0 176 54 297 146
327 19 6 34 18 34 25 0 25 -12 45 -27 45 -29 0 -79 39 -102 80 -32 57 -50 140
-51 228 0 85 -17 119 -74 146 -30 14 -94 16 -543 16 -500 0 -509 -1 -545 -22z
m667 -219 c81 -22 135 -88 120 -146 -3 -15 -24 -44 -46 -65 l-39 -38 32 -13
c50 -22 80 -60 85 -109 6 -61 -21 -106 -83 -138 -46 -24 -58 -25 -241 -28
l-193 -4 0 270 c0 148 3 272 7 275 11 11 315 8 358 -4z"/>
<path d="M3966 6964 c-9 -23 -7 -107 3 -123 7 -10 30 -13 100 -9 111 5 146 24
146 79 0 29 -5 37 -35 51 -48 25 -205 26 -214 2z"/>
<path d="M3977 6745 c-14 -14 -17 -31 -15 -84 l3 -66 103 -3 c147 -4 197 25
178 103 -10 38 -59 57 -161 63 -77 4 -94 2 -108 -13z"/>
<path d="M1913 7218 c-29 -22 -53 -44 -53 -49 0 -4 30 -31 67 -58 51 -39 76
-51 103 -51 49 -1 99 -48 100 -95 1 -12 24 -38 62 -67 48 -38 69 -48 99 -48
26 0 47 -8 68 -26 67 -56 22 -154 -71 -154 -68 0 -118 44 -118 104 0 15 -14
33 -44 54 -24 18 -47 32 -50 32 -3 0 -6 -54 -6 -120 0 -87 3 -121 13 -127 21
-12 47 -55 47 -76 0 -11 -15 -34 -34 -53 -28 -28 -42 -34 -75 -34 -47 0 -95
21 -105 45 -14 37 -6 83 19 106 24 23 25 28 25 160 0 135 0 137 -25 153 -19
12 -25 25 -25 50 0 30 -8 41 -61 85 -33 28 -66 51 -72 51 -7 0 -59 -38 -117
-85 -58 -47 -109 -88 -115 -93 -142 -108 -178 -144 -168 -168 3 -8 40 -42 82
-76 42 -34 162 -132 266 -217 105 -85 205 -165 224 -178 66 -45 82 -38 284
125 100 81 233 188 294 237 142 114 145 125 45 202 -95 74 -104 81 -319 256
-190 153 -196 157 -241 157 -40 0 -55 -7 -99 -42z"/>
<path d="M4451 5915 c-1 -55 0 -58 16 -43 12 13 13 20 6 30 -6 7 -13 27 -16
43 -2 17 -5 4 -6 -30z"/>
<path d="M3613 5905 c0 -27 2 -38 4 -22 2 15 2 37 0 50 -2 12 -4 0 -4 -28z"/>
<path d="M3722 5890 c0 -19 2 -27 5 -17 2 9 2 25 0 35 -3 9 -5 1 -5 -18z"/>
<path d="M4382 5890 c0 -19 2 -27 5 -17 2 9 2 25 0 35 -3 9 -5 1 -5 -18z"/>
<path d="M3830 5884 c0 -14 4 -23 9 -20 5 3 7 15 4 26 -7 28 -13 25 -13 -6z"/>
<path d="M4130 5896 c0 -9 5 -16 10 -16 6 0 10 4 10 9 0 6 -4 13 -10 16 -5 3
-10 -1 -10 -9z"/>
<path d="M4042 5880 c0 -14 2 -19 5 -12 2 6 2 18 0 25 -3 6 -5 1 -5 -13z"/>
<path d="M4265 5880 c3 -5 8 -10 11 -10 2 0 4 5 4 10 0 6 -5 10 -11 10 -5 0
-7 -4 -4 -10z"/>
<path d="M1640 5875 c0 -15 18 -40 24 -34 3 3 -1 14 -9 25 -8 10 -14 15 -15 9z"/>
<path d="M1880 5840 c0 -5 5 -10 10 -10 6 0 10 5 10 10 0 6 -4 10 -10 10 -5 0
-10 -4 -10 -10z"/>
<path d="M3613 5720 c0 -36 2 -50 4 -32 2 17 2 47 0 65 -2 17 -4 3 -4 -33z"/>
<path d="M4000 5700 c0 -25 4 -39 10 -35 6 3 10 19 10 35 0 16 -4 32 -10 35
-6 4 -10 -10 -10 -35z"/>
<path d="M4229 5667 c-2 -31 -1 -57 2 -57 11 0 15 42 9 80 -6 31 -7 29 -11
-23z"/>
<path d="M3872 5690 c0 -14 2 -19 5 -12 2 6 2 18 0 25 -3 6 -5 1 -5 -13z"/>
<path d="M4172 5685 c0 -16 2 -22 5 -12 2 9 2 23 0 30 -3 6 -5 -1 -5 -18z"/>
<path d="M4280 5700 c0 -5 5 -10 10 -10 6 0 10 5 10 10 0 6 -4 10 -10 10 -5 0
-10 -4 -10 -10z"/>
<path d="M3700 5686 c0 -9 5 -16 10 -16 6 0 10 4 10 9 0 6 -4 13 -10 16 -5 3
-10 -1 -10 -9z"/>
<path d="M3781 5684 c0 -11 3 -14 6 -6 3 7 2 16 -1 19 -3 4 -6 -2 -5 -13z"/>
<path d="M3810 5680 c0 -5 5 -10 11 -10 5 0 7 5 4 10 -3 6 -8 10 -11 10 -2 0
-4 -4 -4 -10z"/>
<path d="M2657 4854 c-4 -20 -2 -44 3 -54 5 -9 6 -26 3 -38 -3 -13 -1 -22 6
-22 7 0 11 26 11 75 0 79 -13 101 -23 39z"/>
<path d="M3670 4875 c0 -8 5 -15 10 -15 6 0 10 7 10 15 0 8 -4 15 -10 15 -5 0
-10 -7 -10 -15z"/>
<path d="M1430 4866 c0 -2 7 -11 15 -20 9 -8 16 -31 17 -51 1 -19 5 -35 9 -35
13 0 20 50 9 70 -10 18 -50 47 -50 36z"/>
<path d="M987 4842 c-35 -39 -5 -92 51 -92 31 0 74 43 66 67 -16 44 -86 59
-117 25z"/>
<path d="M3516 4843 c-3 -3 -6 -25 -6 -49 0 -29 5 -44 16 -48 24 -9 28 -7 14
9 -8 9 -10 28 -6 49 6 32 -3 53 -18 39z"/>
<path d="M1526 4831 c-8 -12 3 -41 15 -41 5 0 9 11 9 25 0 25 -14 34 -24 16z"/>
<path d="M1330 4801 c0 -20 8 -35 22 -45 34 -24 42 -19 19 10 -12 15 -21 35
-21 45 0 11 -4 19 -10 19 -5 0 -10 -13 -10 -29z"/>
<path d="M2519 4826 c-8 -8 3 -86 11 -86 4 0 6 19 3 43 -6 46 -7 49 -14 43z"/>
<path d="M3027 4823 c-11 -10 -8 -133 3 -133 6 0 10 30 10 70 0 70 -1 76 -13
63z"/>
<path d="M3380 4787 c0 -33 4 -47 14 -47 10 0 12 9 6 40 -11 58 -20 61 -20 7z"/>
<path d="M3609 4828 c-7 -13 -5 -88 2 -88 5 0 9 20 9 45 0 37 -5 55 -11 43z"/>
<path d="M1610 4780 c0 -22 5 -40 10 -40 6 0 10 18 10 40 0 22 -4 40 -10 40
-5 0 -10 -18 -10 -40z"/>
<path d="M1748 4803 c-5 -26 3 -63 14 -63 5 0 7 16 3 37 -7 43 -12 51 -17 26z"/>
<path d="M2100 4745 c0 -41 4 -75 9 -75 11 0 18 56 13 109 -7 69 -22 46 -22
-34z"/>
<path d="M2172 4801 c16 -25 31 -27 26 -4 -2 10 -11 19 -21 21 -16 3 -17 1 -5
-17z"/>
<path d="M2240 4781 c0 -23 2 -41 4 -41 8 0 12 71 4 76 -4 3 -8 -13 -8 -35z"/>
<path d="M2385 4810 c-3 -5 -1 -10 4 -10 6 0 11 5 11 10 0 6 -2 10 -4 10 -3 0
-8 -4 -11 -10z"/>
<path d="M2450 4795 c5 -14 7 -32 3 -42 -4 -10 -2 -14 4 -10 17 10 14 77 -3
77 -10 0 -11 -6 -4 -25z"/>
<path d="M2725 4780 c0 -22 3 -40 8 -40 4 0 7 18 7 40 0 22 -3 40 -7 40 -5 0
-8 -18 -8 -40z"/>
<path d="M2822 4790 c-33 -45 -26 -58 8 -15 32 41 34 45 22 45 -5 0 -18 -13
-30 -30z"/>
<path d="M3140 4810 c0 -5 5 -10 11 -10 5 0 7 5 4 10 -3 6 -8 10 -11 10 -2 0
-4 -4 -4 -10z"/>
<path d="M3450 4780 c0 -22 5 -40 10 -40 6 0 10 18 10 40 0 22 -4 40 -10 40
-5 0 -10 -18 -10 -40z"/>
<path d="M3790 4810 c0 -5 5 -10 10 -10 6 0 10 5 10 10 0 6 -4 10 -10 10 -5 0
-10 -4 -10 -10z"/>
<path d="M3850 4806 c0 -9 7 -19 15 -23 23 -8 25 0 4 21 -17 18 -19 18 -19 2z"/>
<path d="M1820 4798 c0 -7 11 -18 25 -25 32 -15 32 0 0 21 -18 12 -25 13 -25
4z"/>
<path d="M2326 4798 c-13 -28 -2 -53 24 -56 22 -3 23 -2 8 10 -9 7 -18 24 -21
38 -3 21 -5 22 -11 8z"/>
<path d="M2957 4804 c-11 -11 -8 -52 4 -59 17 -11 21 0 12 35 -5 17 -12 28
-16 24z"/>
<path d="M3080 4781 c0 -21 6 -32 21 -36 11 -4 23 -4 26 -1 4 3 -1 6 -10 6
-12 0 -17 9 -17 30 0 17 -4 30 -10 30 -5 0 -10 -13 -10 -29z"/>
<path d="M3206 4795 c4 -8 12 -15 19 -15 8 0 17 -10 20 -21 6 -16 9 -18 15 -8
11 17 5 26 -30 44 -26 14 -29 14 -24 0z"/>
<path d="M3732 4794 c-18 -19 2 -54 30 -54 19 0 20 1 6 13 -9 6 -18 22 -20 33
-2 19 -5 20 -16 8z"/>
<path d="M2038 4795 c-8 -8 3 -55 13 -55 5 0 9 14 9 30 0 28 -9 38 -22 25z"/>
<path d="M2576 4791 c-8 -13 11 -51 24 -51 13 0 13 3 -4 35 -8 15 -17 22 -20
16z"/>
<path d="M1530 4775 c0 -15 18 -40 24 -34 3 3 -1 14 -9 25 -8 10 -14 15 -15 9z"/>
<path d="M3667 4761 c-3 -14 0 -21 9 -21 16 0 18 9 5 28 -6 10 -10 9 -14 -7z"/>
<path d="M3900 4766 c0 -9 5 -16 10 -16 6 0 10 4 10 9 0 6 -4 13 -10 16 -5 3
-10 -1 -10 -9z"/>
<path d="M1990 4755 c0 -8 4 -15 10 -15 5 0 7 7 4 15 -4 8 -8 15 -10 15 -2 0
-4 -7 -4 -15z"/>
<path d="M1690 4756 c0 -2 7 -6 15 -10 8 -3 15 -1 15 4 0 6 -7 10 -15 10 -8 0
-15 -2 -15 -4z"/>
<path d="M2905 4750 c3 -5 11 -10 16 -10 6 0 7 5 4 10 -3 6 -11 10 -16 10 -6
0 -7 -4 -4 -10z"/>
<path d="M1862 4494 c-27 -18 -29 -61 -4 -80 42 -32 112 -5 112 44 0 24 -35
52 -65 52 -11 0 -31 -7 -43 -16z"/>
<path d="M2392 4460 c0 -19 2 -27 5 -17 2 9 2 25 0 35 -3 9 -5 1 -5 -18z"/>
<path d="M2590 4480 c0 -5 5 -10 10 -10 6 0 10 5 10 10 0 6 -4 10 -10 10 -5 0
-10 -4 -10 -10z"/>
<path d="M2652 4460 c0 -19 2 -27 5 -17 2 9 2 25 0 35 -3 9 -5 1 -5 -18z"/>
<path d="M2760 4459 c0 -16 4 -28 9 -25 8 5 3 56 -5 56 -2 0 -4 -14 -4 -31z"/>
<path d="M2820 4430 c0 -35 3 -61 6 -57 7 7 7 107 0 115 -3 3 -6 -23 -6 -58z"/>
<path d="M3210 4459 c0 -18 3 -29 7 -25 10 10 11 46 1 52 -4 3 -8 -9 -8 -27z"/>
<path d="M2870 4471 c0 -6 5 -13 10 -16 6 -3 10 1 10 9 0 9 -4 16 -10 16 -5 0
-10 -4 -10 -9z"/>
<path d="M2910 4473 c0 -5 12 -13 26 -20 26 -12 26 -12 9 7 -18 20 -35 26 -35
13z"/>
<path d="M2270 4453 c0 -13 5 -23 10 -23 13 0 13 11 0 30 -8 12 -10 11 -10 -7z"/>
<path d="M2440 4455 c0 -8 5 -15 10 -15 6 0 10 7 10 15 0 8 -4 15 -10 15 -5 0
-10 -7 -10 -15z"/>
<path d="M1860 4023 c-18 -7 -39 -33 -40 -49 0 -22 41 -54 70 -54 32 0 70 30
70 55 0 38 -56 65 -100 48z"/>
<path d="M2652 3930 c0 -19 2 -27 5 -17 2 9 2 25 0 35 -3 9 -5 1 -5 -18z"/>
<path d="M2760 3930 c0 -16 4 -30 8 -30 5 0 7 14 4 30 -2 17 -6 30 -8 30 -2 0
-4 -13 -4 -30z"/>
<path d="M2823 3900 c0 -36 2 -50 4 -32 2 17 2 47 0 65 -2 17 -4 3 -4 -33z"/>
<path d="M3210 3932 c0 -18 5 -32 10 -32 6 0 8 11 4 28 -10 39 -14 40 -14 4z"/>
<path d="M2388 3925 c-3 -14 -1 -25 3 -25 5 0 9 11 9 25 0 14 -2 25 -4 25 -2
0 -6 -11 -8 -25z"/>
<path d="M2870 3935 c0 -8 5 -15 10 -15 6 0 10 7 10 15 0 8 -4 15 -10 15 -5 0
-10 -7 -10 -15z"/>
<path d="M2270 3928 c0 -9 5 -20 10 -23 13 -8 13 5 0 25 -8 13 -10 13 -10 -2z"/>
<path d="M2442 3923 c2 -9 8 -18 15 -20 7 -3 9 3 6 16 -6 25 -26 28 -21 4z"/>
<path d="M1840 3530 c-11 -11 -20 -26 -20 -34 0 -21 48 -56 76 -56 27 0 64 32
64 55 0 25 -38 55 -70 55 -17 0 -39 -9 -50 -20z"/>
<path d="M2392 3440 c0 -19 2 -27 5 -17 2 9 2 25 0 35 -3 9 -5 1 -5 -18z"/>
<path d="M2595 3460 c3 -5 8 -10 11 -10 2 0 4 5 4 10 0 6 -5 10 -11 10 -5 0
-7 -4 -4 -10z"/>
<path d="M2652 3440 c0 -19 2 -27 5 -17 2 9 2 25 0 35 -3 9 -5 1 -5 -18z"/>
<path d="M2762 3440 c0 -19 2 -27 5 -17 2 9 2 25 0 35 -3 9 -5 1 -5 -18z"/>
<path d="M2822 3415 c-1 -40 2 -53 7 -40 5 11 5 38 1 60 -7 38 -8 36 -8 -20z"/>
<path d="M2870 3456 c0 -8 5 -18 10 -21 6 -3 10 1 10 9 0 8 -4 18 -10 21 -5 3
-10 -1 -10 -9z"/>
<path d="M3110 3459 c0 -5 5 -7 10 -4 6 3 10 8 10 11 0 2 -4 4 -10 4 -5 0 -10
-5 -10 -11z"/>
<path d="M3210 3446 c0 -31 6 -34 13 -6 3 11 1 23 -4 26 -5 3 -9 -6 -9 -20z"/>
<path d="M2931 3441 c13 -11 26 -17 28 -15 5 5 -30 33 -43 34 -4 0 2 -9 15
-19z"/>
<path d="M2270 3436 c0 -8 5 -18 10 -21 6 -3 10 1 10 9 0 8 -4 18 -10 21 -5 3
-10 -1 -10 -9z"/>
<path d="M2440 3435 c0 -8 5 -15 10 -15 6 0 10 7 10 15 0 8 -4 15 -10 15 -5 0
-10 -7 -10 -15z"/>
<path d="M1873 2985 c-31 -14 -73 -62 -73 -85 0 -22 29 -67 55 -84 32 -21 49
-11 20 11 -16 13 -17 15 -2 10 11 -4 17 -1 17 8 0 8 -6 15 -14 15 -19 0 -27
24 -19 61 l6 30 66 -3 c62 -3 66 -5 76 -32 8 -25 6 -31 -19 -51 -28 -22 -33
-54 -10 -62 6 -2 25 10 43 26 54 51 37 126 -36 156 -43 18 -68 18 -110 0z"/>
<path d="M2878 2989 c-57 -21 -65 -152 -12 -197 25 -22 34 -24 117 -20 111 4
127 18 127 108 0 73 -5 87 -41 105 -32 17 -149 19 -191 4z m193 -26 c17 -17
17 -139 0 -156 -8 -8 -44 -12 -102 -12 -106 0 -109 3 -109 92 0 84 16 95 122
91 44 -2 82 -8 89 -15z"/>
<path d="M3040 2939 c0 -5 5 -7 10 -4 6 3 10 8 10 11 0 2 -4 4 -10 4 -5 0 -10
-5 -10 -11z"/>
<path d="M2928 2928 c-47 -37 -18 -98 45 -98 58 0 91 65 50 96 -23 17 -74 18
-95 2z m82 -23 c25 -31 -9 -63 -55 -51 -18 5 -25 13 -25 30 0 36 56 50 80 21z"/>
<path d="M3903 2973 c-9 -3 -13 -35 -13 -108 0 -85 3 -104 16 -109 9 -3 64 -6
124 -6 60 0 115 3 124 6 13 5 16 24 16 105 0 87 -2 99 -19 109 -20 10 -225 13
-248 3z m66 -36 c13 -16 5 -27 -21 -27 -18 0 -25 20 -11 33 10 10 19 8 32 -6z
m1 -97 c0 -43 -3 -50 -20 -50 -17 0 -20 7 -20 50 0 43 3 50 20 50 17 0 20 -7
20 -50z m150 31 c15 -29 12 -78 -5 -85 -16 -6 -19 -2 -30 47 -8 40 -38 32 -45
-11 -3 -18 -8 -33 -12 -32 -5 0 -12 0 -18 0 -5 0 -10 23 -10 50 l0 50 55 0
c43 0 56 -4 65 -19z"/>
<path d="M3719 2603 c-3 -16 -1 -44 2 -63 5 -28 7 -23 8 28 1 65 -4 82 -10 35z"/>
<path d="M1837 2569 c-6 -24 1 -49 14 -49 5 0 6 15 2 33 -8 41 -9 43 -16 16z"/>
<path d="M2032 2545 c0 -16 2 -22 5 -12 2 9 2 23 0 30 -3 6 -5 -1 -5 -18z"/>
<path d="M2498 2545 c-3 -14 -1 -28 3 -31 5 -3 9 9 9 25 0 38 -6 40 -12 6z"/>
<path d="M2760 2560 c0 -5 5 -10 11 -10 5 0 7 5 4 10 -3 6 -8 10 -11 10 -2 0
-4 -4 -4 -10z"/>
<path d="M2890 2540 c0 -16 5 -30 10 -30 6 0 10 14 10 30 0 17 -4 30 -10 30
-5 0 -10 -13 -10 -30z"/>
<path d="M2952 2540 c0 -19 2 -27 5 -17 2 9 2 25 0 35 -3 9 -5 1 -5 -18z"/>
<path d="M3060 2550 c0 -19 3 -21 12 -12 9 9 9 15 0 24 -9 9 -12 7 -12 -12z"/>
<path d="M2182 2540 c0 -14 2 -19 5 -12 2 6 2 18 0 25 -3 6 -5 1 -5 -13z"/>
<path d="M2372 2540 c0 -14 2 -19 5 -12 2 6 2 18 0 25 -3 6 -5 1 -5 -13z"/>
<path d="M2810 2555 c0 -2 10 -10 23 -16 20 -11 21 -11 8 4 -13 16 -31 23 -31
12z"/>
<path d="M3230 2547 c0 -17 28 -43 37 -34 3 4 -2 9 -11 13 -9 3 -14 10 -11 14
3 5 1 11 -5 15 -5 3 -10 0 -10 -8z"/>
<path d="M3570 2535 c0 -14 4 -25 9 -25 4 0 6 11 3 25 -2 14 -6 25 -8 25 -2 0
-4 -11 -4 -25z"/>
<path d="M3761 2544 c-1 -12 6 -25 15 -28 13 -5 14 -3 7 6 -6 7 -13 20 -16 28
-4 10 -6 8 -6 -6z"/>
<path d="M3141 2524 c0 -11 3 -14 6 -6 3 7 2 16 -1 19 -3 4 -6 -2 -5 -13z"/>
<path d="M3660 2520 c0 -5 5 -10 11 -10 5 0 7 5 4 10 -3 6 -8 10 -11 10 -2 0
-4 -4 -4 -10z"/>
</g>
</svg>
