<svg id="visual" viewBox="0 0 900 600" width="900" height="600" xmlns="http://www.w3.org/2000/svg" xmlns:xlink="http://www.w3.org/1999/xlink" version="1.1"><g stroke-width="1" stroke-linejoin="bevel"><path d="M434 299L416 439L470 336Z" fill="#95a5b3" stroke="#95a5b3"></path><path d="M416 439L485 365L470 336Z" fill="#e4e8ec" stroke="#e4e8ec"></path><path d="M434 299L320 407L416 439Z" fill="#e4e8ec" stroke="#e4e8ec"></path><path d="M537 185L373 217L434 299Z" fill="#95a5b3" stroke="#95a5b3"></path><path d="M434 299L275 281L320 407Z" fill="#c9d1d8" stroke="#c9d1d8"></path><path d="M373 217L275 281L434 299Z" fill="#e4e8ec" stroke="#e4e8ec"></path><path d="M282 502L416 525L416 439Z" fill="#7c90a0" stroke="#7c90a0"></path><path d="M416 439L506 514L485 365Z" fill="#899ba9" stroke="#899ba9"></path><path d="M590 405L572 338L485 365Z" fill="#ffffff" stroke="#ffffff"></path><path d="M485 365L572 338L470 336Z" fill="#afbbc5" stroke="#afbbc5"></path><path d="M470 336L537 185L434 299Z" fill="#899ba9" stroke="#899ba9"></path><path d="M416 525L506 514L416 439Z" fill="#95a5b3" stroke="#95a5b3"></path><path d="M162 422L282 502L320 407Z" fill="#e4e8ec" stroke="#e4e8ec"></path><path d="M320 407L282 502L416 439Z" fill="#afbbc5" stroke="#afbbc5"></path><path d="M373 217L309 200L275 281Z" fill="#899ba9" stroke="#899ba9"></path><path d="M506 514L590 405L485 365Z" fill="#e4e8ec" stroke="#e4e8ec"></path><path d="M619 205L537 185L572 338Z" fill="#899ba9" stroke="#899ba9"></path><path d="M572 338L537 185L470 336Z" fill="#95a5b3" stroke="#95a5b3"></path><path d="M373 217L402 111L309 200Z" fill="#f1f3f5" stroke="#f1f3f5"></path><path d="M301 600L423 600L416 525Z" fill="#d6dce2" stroke="#d6dce2"></path><path d="M416 525L423 600L506 514Z" fill="#95a5b3" stroke="#95a5b3"></path><path d="M309 200L194 235L275 281Z" fill="#ffffff" stroke="#ffffff"></path><path d="M275 281L162 422L320 407Z" fill="#ffffff" stroke="#ffffff"></path><path d="M160 309L162 422L275 281Z" fill="#ffffff" stroke="#ffffff"></path><path d="M282 502L301 600L416 525Z" fill="#95a5b3" stroke="#95a5b3"></path><path d="M194 235L160 309L275 281Z" fill="#d6dce2" stroke="#d6dce2"></path><path d="M223 600L301 600L282 502Z" fill="#c9d1d8" stroke="#c9d1d8"></path><path d="M537 185L402 111L373 217Z" fill="#c9d1d8" stroke="#c9d1d8"></path><path d="M309 200L230 98L194 235Z" fill="#ffffff" stroke="#ffffff"></path><path d="M529 600L620 502L506 514Z" fill="#d6dce2" stroke="#d6dce2"></path><path d="M506 514L620 502L590 405Z" fill="#ffffff" stroke="#ffffff"></path><path d="M590 405L669 367L572 338Z" fill="#f1f3f5" stroke="#f1f3f5"></path><path d="M162 422L192 528L282 502Z" fill="#e4e8ec" stroke="#e4e8ec"></path><path d="M423 600L529 600L506 514Z" fill="#e4e8ec" stroke="#e4e8ec"></path><path d="M620 502L669 367L590 405Z" fill="#bcc6cf" stroke="#bcc6cf"></path><path d="M669 367L619 205L572 338Z" fill="#ffffff" stroke="#ffffff"></path><path d="M537 185L524 119L402 111Z" fill="#ffffff" stroke="#ffffff"></path><path d="M623 122L524 119L537 185Z" fill="#d6dce2" stroke="#d6dce2"></path><path d="M160 309L132 434L162 422Z" fill="#afbbc5" stroke="#afbbc5"></path><path d="M162 422L132 434L192 528Z" fill="#e4e8ec" stroke="#e4e8ec"></path><path d="M192 528L223 600L282 502Z" fill="#afbbc5" stroke="#afbbc5"></path><path d="M97 600L223 600L192 528Z" fill="#95a5b3" stroke="#95a5b3"></path><path d="M529 600L611 600L620 502Z" fill="#afbbc5" stroke="#afbbc5"></path><path d="M768 375L722 325L669 367Z" fill="#7c90a0" stroke="#7c90a0"></path><path d="M310 0L271 81L402 111Z" fill="#ffffff" stroke="#ffffff"></path><path d="M402 111L271 81L309 200Z" fill="#d6dce2" stroke="#d6dce2"></path><path d="M271 81L230 98L309 200Z" fill="#c9d1d8" stroke="#c9d1d8"></path><path d="M194 235L88 279L160 309Z" fill="#a2b0bc" stroke="#a2b0bc"></path><path d="M710 533L669 367L620 502Z" fill="#afbbc5" stroke="#afbbc5"></path><path d="M669 367L722 325L619 205Z" fill="#7c90a0" stroke="#7c90a0"></path><path d="M73 232L88 279L194 235Z" fill="#f1f3f5" stroke="#f1f3f5"></path><path d="M160 309L88 279L132 434Z" fill="#a2b0bc" stroke="#a2b0bc"></path><path d="M709 204L623 122L619 205Z" fill="#7c90a0" stroke="#7c90a0"></path><path d="M619 205L623 122L537 185Z" fill="#afbbc5" stroke="#afbbc5"></path><path d="M539 0L378 0L402 111Z" fill="#f1f3f5" stroke="#f1f3f5"></path><path d="M722 325L709 204L619 205Z" fill="#ffffff" stroke="#ffffff"></path><path d="M689 600L710 533L620 502Z" fill="#95a5b3" stroke="#95a5b3"></path><path d="M129 129L73 232L194 235Z" fill="#ffffff" stroke="#ffffff"></path><path d="M0 396L64 483L132 434Z" fill="#95a5b3" stroke="#95a5b3"></path><path d="M0 396L132 434L88 279Z" fill="#a2b0bc" stroke="#a2b0bc"></path><path d="M132 434L64 483L192 528Z" fill="#ffffff" stroke="#ffffff"></path><path d="M207 0L129 129L230 98Z" fill="#95a5b3" stroke="#95a5b3"></path><path d="M230 98L129 129L194 235Z" fill="#f1f3f5" stroke="#f1f3f5"></path><path d="M710 533L768 375L669 367Z" fill="#d6dce2" stroke="#d6dce2"></path><path d="M722 325L833 294L709 204Z" fill="#c9d1d8" stroke="#c9d1d8"></path><path d="M539 0L402 111L524 119Z" fill="#95a5b3" stroke="#95a5b3"></path><path d="M271 81L207 0L230 98Z" fill="#7c90a0" stroke="#7c90a0"></path><path d="M611 600L689 600L620 502Z" fill="#bcc6cf" stroke="#bcc6cf"></path><path d="M710 533L810 518L768 375Z" fill="#e4e8ec" stroke="#e4e8ec"></path><path d="M378 0L310 0L402 111Z" fill="#ffffff" stroke="#ffffff"></path><path d="M64 483L97 600L192 528Z" fill="#a2b0bc" stroke="#a2b0bc"></path><path d="M623 122L539 0L524 119Z" fill="#afbbc5" stroke="#afbbc5"></path><path d="M619 0L539 0L623 122Z" fill="#899ba9" stroke="#899ba9"></path><path d="M818 202L728 132L709 204Z" fill="#d6dce2" stroke="#d6dce2"></path><path d="M709 204L728 132L623 122Z" fill="#95a5b3" stroke="#95a5b3"></path><path d="M0 280L0 396L88 279Z" fill="#899ba9" stroke="#899ba9"></path><path d="M64 483L0 600L97 600Z" fill="#afbbc5" stroke="#afbbc5"></path><path d="M0 184L0 280L73 232Z" fill="#7c90a0" stroke="#7c90a0"></path><path d="M73 232L0 280L88 279Z" fill="#7c90a0" stroke="#7c90a0"></path><path d="M310 0L207 0L271 81Z" fill="#899ba9" stroke="#899ba9"></path><path d="M129 129L0 184L73 232Z" fill="#a2b0bc" stroke="#a2b0bc"></path><path d="M0 396L0 478L64 483Z" fill="#a2b0bc" stroke="#a2b0bc"></path><path d="M695 0L619 0L623 122Z" fill="#afbbc5" stroke="#afbbc5"></path><path d="M782 600L810 518L710 533Z" fill="#ffffff" stroke="#ffffff"></path><path d="M768 375L833 294L722 325Z" fill="#d6dce2" stroke="#d6dce2"></path><path d="M900 428L833 294L768 375Z" fill="#7c90a0" stroke="#7c90a0"></path><path d="M0 125L0 184L129 129Z" fill="#899ba9" stroke="#899ba9"></path><path d="M689 600L782 600L710 533Z" fill="#899ba9" stroke="#899ba9"></path><path d="M833 294L818 202L709 204Z" fill="#a2b0bc" stroke="#a2b0bc"></path><path d="M728 132L695 0L623 122Z" fill="#a2b0bc" stroke="#a2b0bc"></path><path d="M0 478L0 600L64 483Z" fill="#c9d1d8" stroke="#c9d1d8"></path><path d="M76 0L0 125L129 129Z" fill="#bcc6cf" stroke="#bcc6cf"></path><path d="M762 0L695 0L728 132Z" fill="#899ba9" stroke="#899ba9"></path><path d="M900 93L804 87L818 202Z" fill="#afbbc5" stroke="#afbbc5"></path><path d="M818 202L804 87L728 132Z" fill="#e4e8ec" stroke="#e4e8ec"></path><path d="M207 0L76 0L129 129Z" fill="#d6dce2" stroke="#d6dce2"></path><path d="M810 518L900 428L768 375Z" fill="#f1f3f5" stroke="#f1f3f5"></path><path d="M833 294L900 215L818 202Z" fill="#f1f3f5" stroke="#f1f3f5"></path><path d="M900 502L900 428L810 518Z" fill="#899ba9" stroke="#899ba9"></path><path d="M900 428L900 292L833 294Z" fill="#95a5b3" stroke="#95a5b3"></path><path d="M804 87L762 0L728 132Z" fill="#e4e8ec" stroke="#e4e8ec"></path><path d="M900 600L900 502L810 518Z" fill="#ffffff" stroke="#ffffff"></path><path d="M900 292L900 215L833 294Z" fill="#bcc6cf" stroke="#bcc6cf"></path><path d="M804 87L900 0L762 0Z" fill="#ffffff" stroke="#ffffff"></path><path d="M76 0L0 0L0 125Z" fill="#afbbc5" stroke="#afbbc5"></path><path d="M782 600L900 600L810 518Z" fill="#a2b0bc" stroke="#a2b0bc"></path><path d="M900 215L900 93L818 202Z" fill="#f1f3f5" stroke="#f1f3f5"></path><path d="M900 93L900 0L804 87Z" fill="#afbbc5" stroke="#afbbc5"></path></g></svg>